<?xml version="1.0" encoding="iso-8859-1"?>
<!-- Generator: Adobe Illustrator 19.0.0, SVG Export Plug-In . SVG Version: 6.00 Build 0)  -->
<svg version="1.1" id="Layer_1" xmlns="http://www.w3.org/2000/svg" xmlns:xlink="http://www.w3.org/1999/xlink" x="0px" y="0px"
	 viewBox="0 0 512 512" style="enable-background:new 0 0 512 512;" xml:space="preserve">
<g>
	<g>
		<path d="M163.865,357.388H93.851c-5.123,0-9.276,4.153-9.276,9.276c0,5.123,4.153,9.276,9.276,9.276h70.013
			c5.123,0,9.276-4.153,9.276-9.276C173.14,361.541,168.988,357.388,163.865,357.388z"/>
	</g>
</g>
<g>
	<g>
		<path d="M163.865,400.481H93.851c-5.123,0-9.276,4.153-9.276,9.276c0,5.123,4.153,9.276,9.276,9.276h70.013
			c5.123,0,9.276-4.153,9.276-9.276C173.14,404.634,168.988,400.481,163.865,400.481z"/>
	</g>
</g>
<g>
	<g>
		<path d="M163.865,443.574H93.851c-5.123,0-9.276,4.153-9.276,9.276c0,5.123,4.153,9.276,9.276,9.276h70.013
			c5.123,0,9.276-4.153,9.276-9.276C173.14,447.727,168.988,443.574,163.865,443.574z"/>
	</g>
</g>
<g>
	<g>
		<path d="M291.007,357.388h-70.014c-5.123,0-9.276,4.153-9.276,9.276c0,5.123,4.153,9.276,9.276,9.276h70.014
			c5.123,0,9.276-4.153,9.276-9.276C300.283,361.541,296.13,357.388,291.007,357.388z"/>
	</g>
</g>
<g>
	<g>
		<path d="M291.007,400.481h-70.014c-5.123,0-9.276,4.153-9.276,9.276c0,5.123,4.153,9.276,9.276,9.276h70.014
			c5.123,0,9.276-4.153,9.276-9.276C300.283,404.634,296.13,400.481,291.007,400.481z"/>
	</g>
</g>
<g>
	<g>
		<path d="M291.007,443.574h-70.014c-5.123,0-9.276,4.153-9.276,9.276c0,5.123,4.153,9.276,9.276,9.276h70.014
			c5.123,0,9.276-4.153,9.276-9.276C300.283,447.727,296.13,443.574,291.007,443.574z"/>
	</g>
</g>
<g>
	<g>
		<path d="M418.149,357.388h-70.013c-5.123,0-9.276,4.153-9.276,9.276c0,5.123,4.153,9.276,9.276,9.276h70.013
			c5.123,0,9.276-4.153,9.276-9.276C427.424,361.541,423.271,357.388,418.149,357.388z"/>
	</g>
</g>
<g>
	<g>
		<path d="M418.149,400.481h-70.013c-5.123,0-9.276,4.153-9.276,9.276c0,5.123,4.153,9.276,9.276,9.276h70.013
			c5.123,0,9.276-4.153,9.276-9.276C427.424,404.634,423.271,400.481,418.149,400.481z"/>
	</g>
</g>
<g>
	<g>
		<path d="M418.149,443.574h-70.013c-5.123,0-9.276,4.153-9.276,9.276c0,5.123,4.153,9.276,9.276,9.276h70.013
			c5.123,0,9.276-4.153,9.276-9.276C427.424,447.727,423.271,443.574,418.149,443.574z"/>
	</g>
</g>
<g>
	<g>
		<path d="M439.829,6.776H54.764c-16.46,0-29.852,13.392-29.852,29.852c0,16.46,13.392,29.852,29.852,29.852h19.599
			c6.23,0,11.298,5.068,11.298,11.298v12.087c0,5.123,4.153,9.276,9.276,9.276c5.123,0,9.276-4.153,9.276-9.276V77.778
			c0-16.459-13.391-29.85-29.85-29.85H54.764c-6.231,0-11.3-5.07-11.3-11.3c0-6.231,5.07-11.3,11.3-11.3h385.065
			c5.123,0,9.276-4.153,9.276-9.276C449.105,10.929,444.952,6.776,439.829,6.776z"/>
	</g>
</g>
<g>
	<g>
		<path d="M187.368,47.929h-42.463c-16.459,0-29.85,13.391-29.85,29.85v12.087c0,5.123,4.153,9.276,9.276,9.276
			c5.123,0,9.276-4.153,9.276-9.276V77.778c0-6.23,5.068-11.298,11.298-11.298h42.463c6.23,0,11.298,5.068,11.298,11.298v12.087
			c0,5.123,4.153,9.276,9.276,9.276s9.276-4.153,9.276-9.276V77.778C217.217,61.319,203.827,47.929,187.368,47.929z"/>
	</g>
</g>
<g>
	<g>
		<path d="M486.208,47.929H259.216c-16.459,0-29.848,13.391-29.848,29.85v12.087c0,5.123,4.153,9.276,9.276,9.276
			c5.123,0,9.276-4.153,9.276-9.276V77.778c0-6.23,5.068-11.298,11.298-11.298h226.991c5.123,0,9.276-4.153,9.276-9.276
			C495.484,52.082,491.331,47.929,486.208,47.929z"/>
	</g>
</g>
<g>
	<g>
		<path d="M462.692,85.162H286.326c-5.123,0-9.276,4.153-9.276,9.276c0,5.123,4.153,9.276,9.276,9.276h176.367
			c5.123,0,9.276-4.153,9.276-9.276C471.968,89.315,467.815,85.162,462.692,85.162z"/>
	</g>
</g>
<g>
	<g>
		<path d="M419.58,134.152H311.801c-5.123,0-9.276,4.153-9.276,9.276c0,5.123,4.153,9.276,9.276,9.276H419.58
			c5.124,0,9.276-4.153,9.276-9.276C428.855,138.305,424.702,134.152,419.58,134.152z"/>
	</g>
</g>
<g>
	<g>
		<path d="M341.196,178.151h-56.83c-5.123,0-9.276,4.153-9.276,9.276c0,5.123,4.153,9.276,9.276,9.276h56.83
			c5.123,0,9.276-4.153,9.276-9.276C350.472,182.304,346.319,178.151,341.196,178.151z"/>
	</g>
</g>
<g>
	<g>
		<path d="M502.724,486.672h-29.156V323.568c0-5.123-4.153-9.276-9.276-9.276h-35.566v-82.864c0-3.115-1.563-6.022-4.163-7.74
			c-2.598-1.717-5.887-2.013-8.751-0.793l-92.14,39.294c-3.418,1.458-5.637,4.816-5.637,8.532v43.57h-51.152L246.77,116.801
			c-0.482-4.734-4.47-8.336-9.228-8.336h-34.939c-4.759,0-8.745,3.602-9.228,8.336l-20.114,197.491h-19.264l-20.115-197.491
			c-0.482-4.734-4.47-8.336-9.228-8.336H89.717c-4.759,0-8.746,3.602-9.228,8.336L60.374,314.292H47.707
			c-5.123,0-9.276,4.153-9.276,9.276v163.105H9.276c-5.123,0-9.276,4.153-9.276,9.276c0,5.123,4.153,9.276,9.276,9.276h493.448
			c5.123,0,9.276-4.153,9.276-9.276C512,490.825,507.847,486.672,502.724,486.672z M336.587,276.85l73.588-31.382v68.824h-73.588
			V276.85z M210.984,127.017h18.179l2.826,27.743h-23.831L210.984,127.017z M206.267,173.312h27.61l14.358,140.98h-56.326
			L206.267,173.312z M98.096,127.017h18.181l2.826,27.743H95.27L98.096,127.017z M93.381,173.312h27.611l14.358,140.98H79.022
			L93.381,173.312z M455.018,486.672H56.983V332.843h398.035V486.672z"/>
	</g>
</g>
<g>
</g>
<g>
</g>
<g>
</g>
<g>
</g>
<g>
</g>
<g>
</g>
<g>
</g>
<g>
</g>
<g>
</g>
<g>
</g>
<g>
</g>
<g>
</g>
<g>
</g>
<g>
</g>
<g>
</g>
</svg>
